<?xml version="1.0" standalone="no"?>
<!DOCTYPE svg PUBLIC "-//W3C//DTD SVG 1.1//EN" "http://www.w3.org/Graphics/SVG/1.1/DTD/svg11.dtd">
<svg width="100%" height="100%" viewBox="0 0 1200 1200" version="1.1" xmlns="http://www.w3.org/2000/svg" xmlns:xlink="http://www.w3.org/1999/xlink" xml:space="preserve" style="fill-rule:evenodd;clip-rule:evenodd;stroke-linecap:square;stroke-linejoin:round;stroke-miterlimit:1.41421;">
    <g>
        <g transform="matrix(0.792952,0,0,0.724548,-302.058,-4.96451)">
            <path d="M1329.91,1450.69C1329.91,1445.17 1325.81,1440.69 1320.77,1440.69L964.983,1440.69C959.941,1440.69 955.847,1445.17 955.847,1450.69L955.847,1470.68C955.847,1476.2 959.941,1480.68 964.983,1480.68L1320.77,1480.68C1325.81,1480.68 1329.91,1476.2 1329.91,1470.68L1329.91,1450.69Z" style="fill:rgb(179,179,179);"/>
        </g>
        <g transform="matrix(0.792952,0,0,0.724548,-302.211,38.3278)">
            <path d="M1329.91,1450.69C1329.91,1445.17 1325.81,1440.69 1320.77,1440.69L964.983,1440.69C959.941,1440.69 955.847,1445.17 955.847,1450.69L955.847,1470.68C955.847,1476.2 959.941,1480.68 964.983,1480.68L1320.77,1480.68C1325.81,1480.68 1329.91,1476.2 1329.91,1470.68L1329.91,1450.69Z" style="fill:rgb(179,179,179);"/>
        </g>
        <g transform="matrix(0.666771,0,0,0.724548,-157.813,81.0761)">
            <path d="M1329.91,1450.69C1329.91,1445.17 1325.04,1440.69 1319.04,1440.69L966.712,1440.69C960.715,1440.69 955.847,1445.17 955.847,1450.69L955.847,1470.68C955.847,1476.2 960.715,1480.68 966.712,1480.68L1319.04,1480.68C1325.04,1480.68 1329.91,1476.2 1329.91,1470.68L1329.91,1450.69Z" style="fill:rgb(179,179,179);"/>
        </g>
        <g transform="matrix(0.349777,0,0,0.724548,204.561,122.044)">
            <path d="M1329.91,1450.69C1329.91,1445.17 1320.63,1440.69 1309.19,1440.69L976.558,1440.69C965.127,1440.69 955.847,1445.17 955.847,1450.69L955.847,1470.68C955.847,1476.2 965.127,1480.68 976.558,1480.68L1309.19,1480.68C1320.63,1480.68 1329.91,1476.2 1329.91,1470.68L1329.91,1450.69Z" style="fill:rgb(179,179,179);"/>
        </g>
        <g transform="matrix(0.792952,0,0,0.724548,-305.221,183.257)">
            <g>
                <g>
                    <g>
                        <g>
                            <g transform="matrix(0.435517,0,0,0.435517,806.639,760.515)">
                                <ellipse cx="438.161" cy="303.064" rx="214.789" ry="216.155" style="fill:rgb(67,242,13);"/>
                            </g>
                            <g transform="matrix(0.319028,0,0,0.319028,858.543,796.707)">
                                <ellipse cx="438.161" cy="303.064" rx="214.789" ry="216.155" style="fill:white;"/>
                            </g>
                        </g>
                    </g>
                </g>
            </g>
        </g>
        <g transform="matrix(0.792952,0,0,0.724548,-494.329,-235.824)">
            <g>
                <g>
                    <g>
                        <g>
                            <g transform="matrix(0.435517,0,0,0.435517,806.639,760.515)">
                                <ellipse cx="438.161" cy="303.064" rx="214.789" ry="216.155" style="fill:rgb(67,242,13);"/>
                            </g>
                            <g transform="matrix(0.319028,0,0,0.319028,858.543,796.707)">
                                <ellipse cx="438.161" cy="303.064" rx="214.789" ry="216.155" style="fill:white;"/>
                            </g>
                        </g>
                    </g>
                </g>
            </g>
        </g>
        <g transform="matrix(0.792952,0,0,0.724548,-205.049,-96.9592)">
            <g>
                <g>
                    <g>
                        <g>
                            <g transform="matrix(0.435517,0,0,0.435517,806.639,760.515)">
                                <ellipse cx="438.161" cy="303.064" rx="214.789" ry="216.155" style="fill:rgb(67,242,13);"/>
                            </g>
                            <g transform="matrix(0.319028,0,0,0.319028,858.543,796.707)">
                                <ellipse cx="438.161" cy="303.064" rx="214.789" ry="216.155" style="fill:white;"/>
                            </g>
                        </g>
                    </g>
                </g>
            </g>
        </g>
        <g transform="matrix(0.792952,0,0,0.724548,112.967,-284.587)">
            <g>
                <g>
                    <g>
                        <g>
                            <g transform="matrix(0.435517,0,0,0.435517,806.639,760.515)">
                                <ellipse cx="438.161" cy="303.064" rx="214.789" ry="216.155" style="fill:rgb(67,242,13);"/>
                            </g>
                            <g transform="matrix(0.319028,0,0,0.319028,858.543,796.707)">
                                <ellipse cx="438.161" cy="303.064" rx="214.789" ry="216.155" style="fill:white;"/>
                            </g>
                        </g>
                    </g>
                </g>
            </g>
        </g>
        <g transform="matrix(0.792952,0,0,0.724548,-36.2165,138.999)">
            <g>
                <g>
                    <g>
                        <g>
                            <g transform="matrix(0.435517,0,0,0.435517,806.639,760.515)">
                                <ellipse cx="438.161" cy="303.064" rx="214.789" ry="216.155" style="fill:rgb(67,242,13);"/>
                            </g>
                            <g transform="matrix(0.319028,0,0,0.319028,858.543,796.707)">
                                <ellipse cx="438.161" cy="303.064" rx="214.789" ry="216.155" style="fill:white;"/>
                            </g>
                        </g>
                    </g>
                </g>
            </g>
        </g>
        <g transform="matrix(0.598093,0,0,0.546499,-243.578,207.643)">
            <g>
                <g>
                    <g>
                        <g>
                            <g transform="matrix(0.435517,0,0,0.435517,806.639,760.515)">
                                <ellipse cx="438.161" cy="303.064" rx="214.789" ry="216.155" style="fill:rgb(67,242,13);"/>
                            </g>
                            <g transform="matrix(0.319028,0,0,0.319028,858.543,796.707)">
                                <ellipse cx="438.161" cy="303.064" rx="214.789" ry="216.155" style="fill:white;"/>
                            </g>
                        </g>
                    </g>
                </g>
            </g>
        </g>
        <g transform="matrix(0.598093,0,0,0.546499,170.196,-216.405)">
            <g>
                <g>
                    <g>
                        <g>
                            <g transform="matrix(0.435517,0,0,0.435517,806.639,760.515)">
                                <ellipse cx="438.161" cy="303.064" rx="214.789" ry="216.155" style="fill:rgb(67,242,13);"/>
                            </g>
                            <g transform="matrix(0.319028,0,0,0.319028,858.543,796.707)">
                                <ellipse cx="438.161" cy="303.064" rx="214.789" ry="216.155" style="fill:white;"/>
                            </g>
                        </g>
                    </g>
                </g>
            </g>
        </g>
        <g transform="matrix(0.598093,0,0,0.546499,163.448,-22.7835)">
            <g>
                <g>
                    <g>
                        <g>
                            <g transform="matrix(0.435517,0,0,0.435517,806.639,760.515)">
                                <ellipse cx="438.161" cy="303.064" rx="214.789" ry="216.155" style="fill:rgb(67,242,13);"/>
                            </g>
                            <g transform="matrix(0.319028,0,0,0.319028,858.543,796.707)">
                                <ellipse cx="438.161" cy="303.064" rx="214.789" ry="216.155" style="fill:white;"/>
                            </g>
                        </g>
                    </g>
                </g>
            </g>
        </g>
        <g transform="matrix(0.598093,0,0,0.546499,-147.641,-169.444)">
            <g>
                <g>
                    <g>
                        <g>
                            <g transform="matrix(0.435517,0,0,0.435517,806.639,760.515)">
                                <ellipse cx="438.161" cy="303.064" rx="214.789" ry="216.155" style="fill:rgb(67,242,13);"/>
                            </g>
                            <g transform="matrix(0.319028,0,0,0.319028,858.543,796.707)">
                                <ellipse cx="438.161" cy="303.064" rx="214.789" ry="216.155" style="fill:white;"/>
                            </g>
                        </g>
                    </g>
                </g>
            </g>
        </g>
        <g transform="matrix(0.516954,0,0,0.472359,20.2638,280.152)">
            <g>
                <g>
                    <g>
                        <g>
                            <g transform="matrix(0.435517,0,0,0.435517,806.639,760.515)">
                                <ellipse cx="438.161" cy="303.064" rx="214.789" ry="216.155" style="fill:rgb(67,242,13);"/>
                            </g>
                            <g transform="matrix(0.319028,0,0,0.319028,858.543,796.707)">
                                <ellipse cx="438.161" cy="303.064" rx="214.789" ry="216.155" style="fill:white;"/>
                            </g>
                        </g>
                    </g>
                </g>
            </g>
        </g>
        <g transform="matrix(0.327324,0,0,0.299087,236.787,663.994)">
            <g>
                <g>
                    <g>
                        <g>
                            <g transform="matrix(0.435517,0,0,0.435517,806.639,760.515)">
                                <ellipse cx="438.161" cy="303.064" rx="214.789" ry="216.155" style="fill:rgb(67,242,13);"/>
                            </g>
                            <g transform="matrix(0.319028,0,0,0.319028,858.543,796.707)">
                                <ellipse cx="438.161" cy="303.064" rx="214.789" ry="216.155" style="fill:white;"/>
                            </g>
                        </g>
                    </g>
                </g>
            </g>
        </g>
        <g transform="matrix(0.274486,0,0,0.250807,196.926,723.146)">
            <g>
                <g>
                    <g>
                        <g>
                            <g transform="matrix(0.435517,0,0,0.435517,806.639,760.515)">
                                <ellipse cx="438.161" cy="303.064" rx="214.789" ry="216.155" style="fill:rgb(67,242,13);"/>
                            </g>
                            <g transform="matrix(0.319028,0,0,0.319028,858.543,796.707)">
                                <ellipse cx="438.161" cy="303.064" rx="214.789" ry="216.155" style="fill:white;"/>
                            </g>
                        </g>
                    </g>
                </g>
            </g>
        </g>
        <g transform="matrix(0.792952,0,0,0.724548,-345.048,16.3588)">
            <path d="M1030.25,1251.9C1030.96,1244.34 1031.23,1235.92 1032.46,1228.49C1033.09,1224.69 1035.78,1220.98 1035.78,1217.24" style="fill:none;stroke-width:18.29px;stroke:rgb(67,242,13);"/>
        </g>
        <g transform="matrix(0.792952,0,0,0.724548,-345.048,16.3588)">
            <path d="M1061.13,1278.09C1077.8,1278.09 1090.02,1275.1 1106.69,1275.1" style="fill:none;stroke-width:18.29px;stroke:rgb(67,242,13);"/>
        </g>
        <g transform="matrix(0.327324,0,0,0.299087,405.159,368.451)">
            <g>
                <g>
                    <g>
                        <g>
                            <g transform="matrix(0.435517,0,0,0.435517,806.639,760.515)">
                                <ellipse cx="438.161" cy="303.064" rx="214.789" ry="216.155" style="fill:rgb(67,242,13);"/>
                            </g>
                            <g transform="matrix(0.319028,0,0,0.319028,858.543,796.707)">
                                <ellipse cx="438.161" cy="303.064" rx="214.789" ry="216.155" style="fill:white;"/>
                            </g>
                        </g>
                    </g>
                </g>
            </g>
        </g>
        <g transform="matrix(0.327324,0,0,0.299087,-74.8139,282.619)">
            <g>
                <g>
                    <g>
                        <g>
                            <g transform="matrix(0.435517,0,0,0.435517,806.639,760.515)">
                                <ellipse cx="438.161" cy="303.064" rx="214.789" ry="216.155" style="fill:rgb(67,242,13);"/>
                            </g>
                            <g transform="matrix(0.319028,0,0,0.319028,858.543,796.707)">
                                <ellipse cx="438.161" cy="303.064" rx="214.789" ry="216.155" style="fill:white;"/>
                            </g>
                        </g>
                    </g>
                </g>
            </g>
        </g>
        <g transform="matrix(0.749153,0,0,0.762107,-308.016,-8.2639)">
            <path d="M758.489,769.63C773.043,801.192 797.19,844.142 813.357,872.463C821.538,886.796 823.934,881.159 830.378,887.603" style="fill:none;stroke-width:18.38px;stroke:rgb(67,242,13);"/>
        </g>
        <g transform="matrix(0.327324,0,0,0.299087,546.623,448.557)">
            <g>
                <g>
                    <g>
                        <g>
                            <g transform="matrix(0.435517,0,0,0.435517,806.639,760.515)">
                                <ellipse cx="438.161" cy="303.064" rx="214.789" ry="216.155" style="fill:rgb(67,242,13);"/>
                            </g>
                            <g transform="matrix(0.319028,0,0,0.319028,858.543,796.707)">
                                <ellipse cx="438.161" cy="303.064" rx="214.789" ry="216.155" style="fill:white;"/>
                            </g>
                        </g>
                    </g>
                </g>
            </g>
        </g>
        <g transform="matrix(0.327324,0,0,0.299087,534.042,-114.927)">
            <g>
                <g>
                    <g>
                        <g>
                            <g transform="matrix(0.435517,0,0,0.435517,806.639,760.515)">
                                <ellipse cx="438.161" cy="303.064" rx="214.789" ry="216.155" style="fill:rgb(67,242,13);"/>
                            </g>
                            <g transform="matrix(0.319028,0,0,0.319028,858.543,796.707)">
                                <ellipse cx="438.161" cy="303.064" rx="214.789" ry="216.155" style="fill:white;"/>
                            </g>
                        </g>
                    </g>
                </g>
            </g>
        </g>
        <g transform="matrix(0.516954,0,0,0.472359,-211.913,-223.394)">
            <g>
                <g>
                    <g>
                        <g>
                            <g transform="matrix(0.435517,0,0,0.435517,806.639,760.515)">
                                <ellipse cx="438.161" cy="303.064" rx="214.789" ry="216.155" style="fill:rgb(67,242,13);"/>
                            </g>
                            <g transform="matrix(0.319028,0,0,0.319028,858.543,796.707)">
                                <ellipse cx="438.161" cy="303.064" rx="214.789" ry="216.155" style="fill:white;"/>
                            </g>
                        </g>
                    </g>
                </g>
            </g>
        </g>
        <g transform="matrix(0.516954,0,0,0.472359,-117.112,123.496)">
            <g>
                <g>
                    <g>
                        <g>
                            <g transform="matrix(0.435517,0,0,0.435517,806.639,760.515)">
                                <ellipse cx="438.161" cy="303.064" rx="214.789" ry="216.155" style="fill:rgb(67,242,13);"/>
                            </g>
                            <g transform="matrix(0.319028,0,0,0.319028,858.543,796.707)">
                                <ellipse cx="438.161" cy="303.064" rx="214.789" ry="216.155" style="fill:white;"/>
                            </g>
                        </g>
                    </g>
                </g>
            </g>
        </g>
        <g transform="matrix(0.880655,0,0,0.804685,-192.202,-638.659)">
            <g>
                <g>
                    <g>
                        <g>
                            <g transform="matrix(0.435517,0,0,0.435517,806.639,760.515)">
                                <ellipse cx="438.161" cy="303.064" rx="214.789" ry="216.155" style="fill:rgb(67,242,13);"/>
                            </g>
                            <g transform="matrix(0.319028,0,0,0.319028,858.543,796.707)">
                                <ellipse cx="438.161" cy="303.064" rx="214.789" ry="216.155" style="fill:white;"/>
                            </g>
                        </g>
                    </g>
                </g>
            </g>
        </g>
        <g transform="matrix(0.516954,0,0,0.472359,198.223,509.004)">
            <g>
                <g>
                    <g>
                        <g>
                            <g transform="matrix(0.435517,0,0,0.435517,806.639,760.515)">
                                <ellipse cx="438.161" cy="303.064" rx="214.789" ry="216.155" style="fill:rgb(67,242,13);"/>
                            </g>
                            <g transform="matrix(0.319028,0,0,0.319028,858.543,796.707)">
                                <ellipse cx="438.161" cy="303.064" rx="214.789" ry="216.155" style="fill:white;"/>
                            </g>
                        </g>
                    </g>
                </g>
            </g>
        </g>
        <g transform="matrix(0.792952,0,0,0.724548,-311.83,-535.256)">
            <g>
                <g>
                    <g>
                        <g>
                            <g transform="matrix(0.435517,0,0,0.435517,806.639,760.515)">
                                <ellipse cx="438.161" cy="303.064" rx="214.789" ry="216.155" style="fill:rgb(67,242,13);"/>
                            </g>
                            <g transform="matrix(0.319028,0,0,0.319028,858.543,796.707)">
                                <ellipse cx="438.161" cy="303.064" rx="214.789" ry="216.155" style="fill:white;"/>
                            </g>
                        </g>
                    </g>
                </g>
            </g>
        </g>
        <g transform="matrix(0.792952,0,0,0.724548,104.527,-54.2618)">
            <g>
                <g>
                    <g>
                        <g>
                            <g transform="matrix(0.435517,0,0,0.435517,806.639,760.515)">
                                <ellipse cx="438.161" cy="303.064" rx="214.789" ry="216.155" style="fill:rgb(67,242,13);"/>
                            </g>
                            <g transform="matrix(0.319028,0,0,0.319028,858.543,796.707)">
                                <ellipse cx="438.161" cy="303.064" rx="214.789" ry="216.155" style="fill:white;"/>
                            </g>
                        </g>
                    </g>
                </g>
            </g>
        </g>
        <g transform="matrix(0.792952,0,0,0.724548,-175.006,-309.577)">
            <g>
                <g>
                    <g>
                        <g>
                            <g transform="matrix(0.435517,0,0,0.435517,806.639,760.515)">
                                <ellipse cx="438.161" cy="303.064" rx="214.789" ry="216.155" style="fill:rgb(67,242,13);"/>
                            </g>
                            <g transform="matrix(0.319028,0,0,0.319028,858.543,796.707)">
                                <ellipse cx="438.161" cy="303.064" rx="214.789" ry="216.155" style="fill:white;"/>
                            </g>
                        </g>
                    </g>
                </g>
            </g>
        </g>
        <g transform="matrix(0.0383703,0.00718991,-0.134715,0.71893,957.606,4.39787)">
            <path d="M1568.56,558.595C1564.23,650.911 1559.17,700.277 1571.41,715.814" style="fill:none;stroke-width:42.9px;stroke:rgb(67,242,13);"/>
        </g>
        <g transform="matrix(0.792952,0,0,0.70058,-345.048,39.6686)">
            <path d="M1360.22,890.617C1360.22,917.933 1360.22,945.249 1360.22,972.564" style="fill:none;stroke-width:18.56px;stroke:rgb(67,242,13);"/>
        </g>
        <g transform="matrix(0.645346,0,0,1.58501,-129.885,-852.863)">
            <path d="M1457.69,1010.18C1476.31,1004.6 1494.1,992.867 1509.66,992.867" style="fill:none;stroke-width:11.48px;stroke:rgb(67,242,13);"/>
        </g>
        <g transform="matrix(0.792952,0,0,0.711183,-345.048,28.1255)">
            <path d="M1544.53,927.668C1543.43,907.967 1551.86,898.625 1551.86,880.437" style="fill:none;stroke-width:18.44px;stroke:rgb(67,242,13);"/>
        </g>
        <g transform="matrix(0.792952,0,0,0.724548,-345.048,16.3588)">
            <path d="M1439.76,666.932C1456.89,682.044 1467.52,689.827 1480.73,702.465C1484.75,706.303 1509.19,721.864 1509.19,727.137" style="fill:none;stroke-width:18.29px;stroke:rgb(67,242,13);"/>
        </g>
        <g transform="matrix(0.691271,0,0,0.946974,-218.545,-158.62)">
            <path d="M1244.11,786.682C1269.76,789.331 1280.28,805.345 1301.84,817.616C1319.72,827.798 1328.04,828.751 1331.11,828.751" style="fill:none;stroke-width:16.75px;stroke:rgb(67,242,13);"/>
        </g>
        <g transform="matrix(0.792952,0,0,0.724548,-345.048,16.3588)">
            <path d="M1250.42,686.916C1262.06,686.916 1270.9,678.691 1282.69,673.909C1289.06,671.33 1299.33,667.288 1304.93,663.546C1312.45,658.526 1323.83,655.738 1332.9,655.738" style="fill:none;stroke-width:18.29px;stroke:rgb(67,242,13);"/>
        </g>
        <g transform="matrix(0.868605,0,0,0.979302,-448.182,-274.931)">
            <path d="M1363.25,1143.41C1360.17,1153.49 1358.81,1163.06 1354.27,1172.16C1353.16,1174.36 1352.09,1188.74 1350.24,1188.74" style="fill:none;stroke-width:15.01px;stroke:rgb(67,242,13);"/>
        </g>
        <g transform="matrix(0.792952,0,0,0.724548,-345.048,16.3588)">
            <path d="M1129.94,1109.8C1191.29,1106.45 1248.83,1075.33 1310.48,1075.33" style="fill:none;stroke-width:18.29px;stroke:rgb(67,242,13);"/>
        </g>
        <g transform="matrix(0.792952,0,0,0.724548,-345.048,16.3588)">
            <path d="M1182.54,1262.65C1212.02,1261.39 1238.94,1256.15 1268.81,1256.15" style="fill:none;stroke-width:18.29px;stroke:rgb(67,242,13);"/>
        </g>
        <g transform="matrix(0.792952,0,0,0.724548,-345.048,16.3588)">
            <path d="M1128.01,890.919C1128.01,889.931 1134.67,856.745 1136.43,853.23C1138.28,849.533 1144.84,816.419 1144.84,816.322" style="fill:none;stroke-width:18.29px;stroke:rgb(67,242,13);"/>
        </g>
        <g transform="matrix(0.792952,0,0,0.724548,-345.048,16.3588)">
            <path d="M1090.53,999.509C1088.75,1010.37 1079.96,1036.6 1079.96,1044.27" style="fill:none;stroke-width:18.29px;stroke:rgb(67,242,13);"/>
        </g>
        <g transform="matrix(0.151996,0,0,0.759213,228.15,-15.5988)">
            <path d="M913.445,781.454C910.743,790.172 903.365,804.343 902.063,813.447C900.233,826.234 898.407,823.58 896.088,836.345C894.914,842.811 891.461,876.052 899.093,876.052" style="fill:none;stroke-width:25.37px;stroke:rgb(67,242,13);"/>
        </g>
        <g transform="matrix(0.792952,0,0,0.724548,-345.048,16.3588)">
            <path d="M994.183,727.596C1024.26,729.631 1053.38,733.287 1083.66,733.287" style="fill:none;stroke-width:18.29px;stroke:rgb(67,242,13);"/>
        </g>
        <g transform="matrix(0.792952,0,0,0.724548,-345.048,16.3588)">
            <path d="M951.592,450.531C926.15,469.342 926.272,473.283 897.156,481.469C891.557,483.043 882.222,487.688 877.279,487.688" style="fill:none;stroke-width:18.29px;stroke:rgb(67,242,13);"/>
        </g>
        <g transform="matrix(0.792952,0,0,0.700295,-345.048,28.035)">
            <path d="M999.062,481.431C999.062,489.482 992.054,496.865 990.645,505.306C984.385,542.803 969.017,578.47 962.246,615.755C959.582,630.424 956.142,644.859 952.726,659.568C951.465,664.996 952.776,673.951 952.776,678.924" style="fill:none;stroke-width:18.57px;stroke:rgb(67,242,13);"/>
        </g>
        <g transform="matrix(0.792952,0,0,0.724548,-345.048,16.3588)">
            <path d="M1066.38,414.996C1090.61,414.996 1113.95,421.306 1137.6,421.306" style="fill:none;stroke-width:18.29px;stroke:rgb(67,242,13);"/>
        </g>
        <g transform="matrix(0.792952,0,0,0.724548,-345.048,16.3588)">
            <path d="M1284.38,399.582C1304.17,395.952 1325.13,392.219 1344.07,392.219" style="fill:none;stroke-width:18.29px;stroke:rgb(67,242,13);"/>
        </g>
        <g transform="matrix(0.792952,0,0,0.724548,-345.048,16.3588)">
            <path d="M1401.83,419.836C1401.83,442.74 1399.93,466.77 1401.83,489.626C1403.46,509.279 1401.46,538.084 1401.46,557.791" style="fill:none;stroke-width:18.29px;stroke:rgb(67,242,13);"/>
        </g>
        <g transform="matrix(0.792952,0,0,0.724548,-345.048,16.3588)">
            <path d="M1456.26,384.856C1467.44,392.783 1480.05,401.083 1490.98,408.365C1494.24,410.537 1510.27,417.513 1508.17,417.513" style="fill:none;stroke-width:18.29px;stroke:rgb(67,242,13);"/>
        </g>
        <g transform="matrix(1.3343,-0.0248538,0.0218959,0.98144,-850.442,-68.0327)">
            <path d="M836.638,327.319C826.317,369.303 817.704,413.219 817.704,456.386" style="fill:none;stroke-width:11.84px;stroke:rgb(67,242,13);"/>
        </g>
        <g transform="matrix(1.2584,-0.253983,0.241655,1.19732,-850.482,111.828)">
            <path d="M900.534,242.947C918.554,234.094 947.062,217.703 965.489,217.703" style="fill:none;stroke-width:11.08px;stroke:rgb(67,242,13);"/>
        </g>
        <g transform="matrix(1.02711,0,0,0.889835,-597.378,-43.1231)">
            <path d="M1037.02,251.048C1031.1,282.636 1024.39,319.592 1024.39,351.028" style="fill:none;stroke-width:14.45px;stroke:rgb(67,242,13);"/>
        </g>
        <g transform="matrix(0.792952,0,0,0.724548,-349.71,-16.7649)">
            <path d="M1121.77,143.073C1150.6,140.242 1179.44,140.971 1208.39,140.971" style="fill:none;stroke-width:18.29px;stroke:rgb(67,242,13);"/>
        </g>
        <g transform="matrix(1.31242,0.630019,-0.165608,0.344986,-1043.84,-835.052)">
            <path d="M1396.42,152.171C1413.74,156.41 1436.88,170.108 1452.64,170.108" style="fill:none;stroke-width:13.05px;stroke:rgb(67,242,13);"/>
        </g>
        <g transform="matrix(1.02667,0,0,0.869815,-667.182,-20.2972)">
            <path d="M1465.99,218.174C1451.73,234.055 1445.62,249.091 1434.44,265.88C1431.54,270.234 1431.84,280.049 1428.13,283.761" style="fill:none;stroke-width:14.6px;stroke:rgb(67,242,13);"/>
        </g>
        <g transform="matrix(1.03334,0.209991,-0.134945,0.664048,-649.135,-285.194)">
            <path d="M1508.44,215.607C1534.19,268.232 1569.45,327.391 1569.45,384.013" style="fill:none;stroke-width:15.67px;stroke:rgb(67,242,13);"/>
        </g>
        <g transform="matrix(0.792952,0,0,0.724548,-345.048,16.3588)">
            <path d="M753.553,610.858C753.553,639.556 754.918,667.601 754.918,695.475" style="fill:none;stroke-width:18.29px;stroke:rgb(67,242,13);"/>
        </g>
        <g transform="matrix(0.792952,0,0,0.724548,-345.048,16.3588)">
            <path d="M895.27,999.213C895.27,1036.56 945.486,1070.22 967.963,1092.82" style="fill:none;stroke-width:18.29px;stroke:rgb(67,242,13);"/>
        </g>
        <g transform="matrix(0.404703,0,0,0.401728,-260.578,876.923)">
            <text x="1770.13px" y="367.053px" style="font-family:'HiraginoSansGB-W3';font-size:179.721px;fill:rgb(179,179,179);">creative.</text>
        </g>
    </g>
</svg>
